<svg id="Capa_1" data-name="Capa 1" xmlns="http://www.w3.org/2000/svg" viewBox="0 0 520.16 315.72"><defs><style>.cls-1{font-size:90.97px;}.cls-1,.cls-5,.cls-7,.cls-8{font-family:Monster Bites;font-style:italic;}.cls-2{letter-spacing:3px;}.cls-3{letter-spacing:1px;}.cls-4{font-size:203.65px;font-family:Futurist Fixed-width;}.cls-5,.cls-7,.cls-8{font-size:138.37px;}.cls-5{fill:#ff0;}.cls-6{letter-spacing:1.43px;}.cls-7{fill:#078e00;}.cls-10,.cls-8{fill:red;}.cls-9{fill:#0013ff;}.cls-11{fill:#fff;}</style></defs><title>prueba3</title><text class="cls-1" transform="translate(179.99 158.29)"><tspan class="cls-2">u</tspan><tspan class="cls-3" x="61.21" y="0">i</tspan><tspan x="89.15" y="0">c</tspan><tspan x="147.6" y="0">k</tspan></text><text class="cls-4" transform="translate(0 177.18)">Q</text><text x="-172.01" y="-156.76"/><text class="cls-5" transform="translate(393.88 160.49) scale(0.7 1)"><tspan class="cls-6">E</tspan><tspan x="76.75" y="0">R</tspan></text><text class="cls-7" transform="translate(392.55 160.49) scale(0.7 1)"><tspan class="cls-6">E</tspan><tspan x="76.75" y="0">R</tspan></text><text class="cls-8" transform="translate(391.05 160.49) scale(0.7 1)"><tspan class="cls-6">E</tspan><tspan x="76.75" y="0">R</tspan></text><path class="cls-9" d="M680.25,398.75" transform="translate(-172.01 -156.76)"/><path class="cls-10" d="M341.1,350.69c92.05,74,165.45,46.76,237.4,11.61l-14.77-9.06c-60.59,32-123.27,53.87-202.15-2.45Z" transform="translate(-172.01 -156.76)"/><path class="cls-10" d="M587.2,333a0.53,0.53,0,0,1,.77.64l-7.12,42.23a0.53,0.53,0,0,1-.94.35l-33-27.28a0.53,0.53,0,0,1,.17-1Z" transform="translate(-172.01 -156.76)"/><path class="cls-11" d="M307.89,315.78A122.28,122.28,0,0,0,321,306.89l-25.65-28.49-26.16-.22Z" transform="translate(-172.01 -156.76)"/></svg>